<svg width="1920" height="1080" viewBox="0 0 1920 1080" fill="none" xmlns="http://www.w3.org/2000/svg">
<g clip-path="url(#clip0_1275_6439)">
<rect width="1920" height="1080" fill="url(#paint0_linear_1275_6439)"/>
<g opacity="0.45" filter="url(#filter0_f_1275_6439)">
<path fill-rule="evenodd" clip-rule="evenodd" d="M336.619 161.139C415.074 173.321 488.895 191.605 550.613 238.036C621.078 291.047 703.494 351.984 701.963 435.99C700.442 519.512 604.345 565.639 543.519 627.381C477.319 694.579 434.785 802.411 336.619 806.841C237.573 811.31 167.61 720.662 108.498 647.011C59.2365 585.633 50.1609 511.73 38.9742 435.99C24.8861 340.605 -37.3559 226.195 36.2986 158.181C109.954 90.1661 233.981 145.203 336.619 161.139Z" fill="#AD1AAF"/>
</g>
<g opacity="0.45" filter="url(#filter1_f_1275_6439)">
<path fill-rule="evenodd" clip-rule="evenodd" d="M1142.09 703.159C1094.06 683.546 1049.9 660.754 1017.69 621.9C980.913 577.54 937.741 526.333 951.423 473.162C965.027 420.297 1033.09 405.513 1081.1 375.466C1133.35 342.763 1176.71 280.649 1239.78 292.685C1303.42 304.829 1334.18 373.04 1360.62 428.803C1382.65 475.274 1377.23 523.627 1372.89 573.468C1367.41 636.236 1389.67 718.383 1332.56 750.476C1275.44 782.57 1204.93 728.818 1142.09 703.159Z" fill="#00FFA3"/>
</g>
<g opacity="0.45" filter="url(#filter2_f_1275_6439)">
<path fill-rule="evenodd" clip-rule="evenodd" d="M1372.47 636.74C1323.32 620.111 1277.84 600.072 1243.31 563.268C1203.88 521.248 1157.65 472.788 1168.04 418.877C1178.38 365.277 1245.41 346.343 1291.48 313.407C1341.63 277.559 1381.09 212.902 1444.78 221.044C1509.05 229.26 1543.94 295.454 1573.74 349.49C1598.58 394.521 1596.15 443.116 1594.87 493.129C1593.26 556.114 1620.51 636.741 1565.48 672.279C1510.44 707.817 1436.76 658.494 1372.47 636.74Z" fill="#AD1AAF"/>
</g>
<g opacity="0.45" filter="url(#filter3_f_1275_6439)">
<path fill-rule="evenodd" clip-rule="evenodd" d="M1224.98 884.959C1202.99 837.97 1186 791.269 1188.68 740.871C1191.75 683.332 1194.75 616.422 1240.87 586.63C1286.72 557.01 1346.77 592.313 1402.43 602.795C1463 614.203 1536.99 597.964 1575.17 649.589C1613.7 701.676 1590.04 772.663 1571.64 831.569C1556.31 880.659 1519.54 912.52 1482.54 946.196C1435.95 988.606 1396.59 1064.07 1332.85 1048.91C1269.11 1033.76 1253.75 946.433 1224.98 884.959Z" fill="#AD1AAF"/>
</g>
<g opacity="0.45" filter="url(#filter4_f_1275_6439)">
<path fill-rule="evenodd" clip-rule="evenodd" d="M1269.9 613.744C1227.2 596.31 1187.95 576.051 1159.32 541.514C1126.63 502.082 1088.25 456.566 1100.41 409.302C1112.51 362.311 1173.01 349.17 1215.68 322.461C1262.13 293.392 1300.67 238.18 1356.73 248.878C1413.3 259.673 1440.64 320.304 1464.14 369.872C1483.72 411.179 1478.91 454.16 1475.05 498.463C1470.18 554.257 1489.97 627.277 1439.2 655.804C1388.43 684.332 1325.75 636.552 1269.9 613.744Z" fill="#00FFA3"/>
</g>
<g opacity="0.45" filter="url(#filter5_f_1275_6439)">
<path fill-rule="evenodd" clip-rule="evenodd" d="M1474.67 554.708C1430.99 539.927 1390.57 522.114 1359.87 489.4C1324.82 452.049 1283.73 408.973 1292.96 361.052C1302.15 313.407 1361.73 296.578 1402.69 267.301C1447.26 235.436 1482.34 177.963 1538.95 185.201C1596.08 192.503 1627.09 251.343 1653.59 299.375C1675.67 339.402 1673.5 382.598 1672.37 427.054C1670.93 483.041 1695.16 554.71 1646.24 586.299C1597.32 617.888 1531.82 574.045 1474.67 554.708Z" fill="#AD1AAF"/>
</g>
<g opacity="0.45" filter="url(#filter6_f_1275_6439)">
<path fill-rule="evenodd" clip-rule="evenodd" d="M1343.58 775.346C1324.03 733.578 1308.92 692.066 1311.31 647.268C1314.03 596.122 1316.71 536.646 1357.7 510.165C1398.46 483.835 1451.83 515.216 1501.3 524.533C1555.15 534.674 1620.92 520.239 1654.86 566.128C1689.11 612.428 1668.07 675.527 1651.72 727.888C1638.1 771.523 1605.41 799.845 1572.52 829.779C1531.1 867.477 1496.11 934.553 1439.46 921.084C1382.81 907.614 1369.15 829.99 1343.58 775.346Z" fill="#AD1AAF"/>
</g>
</g>
<defs>
<filter id="filter0_f_1275_6439" x="-668.343" y="-544.343" width="2039.67" height="2020.69" filterUnits="userSpaceOnUse" color-interpolation-filters="sRGB">
<feFlood flood-opacity="0" result="BackgroundImageFix"/>
<feBlend mode="normal" in="SourceGraphic" in2="BackgroundImageFix" result="shape"/>
<feGaussianBlur stdDeviation="334.672" result="effect1_foregroundBlur_1275_6439"/>
</filter>
<filter id="filter1_f_1275_6439" x="279.487" y="-378.183" width="1766.67" height="1807.93" filterUnits="userSpaceOnUse" color-interpolation-filters="sRGB">
<feFlood flood-opacity="0" result="BackgroundImageFix"/>
<feBlend mode="normal" in="SourceGraphic" in2="BackgroundImageFix" result="shape"/>
<feGaussianBlur stdDeviation="334.672" result="effect1_foregroundBlur_1275_6439"/>
</filter>
<filter id="filter2_f_1275_6439" x="497.216" y="-448.999" width="1772.34" height="1803.12" filterUnits="userSpaceOnUse" color-interpolation-filters="sRGB">
<feFlood flood-opacity="0" result="BackgroundImageFix"/>
<feBlend mode="normal" in="SourceGraphic" in2="BackgroundImageFix" result="shape"/>
<feGaussianBlur stdDeviation="334.672" result="effect1_foregroundBlur_1275_6439"/>
</filter>
<filter id="filter3_f_1275_6439" x="519.06" y="-94.2962" width="1746.16" height="1814.53" filterUnits="userSpaceOnUse" color-interpolation-filters="sRGB">
<feFlood flood-opacity="0" result="BackgroundImageFix"/>
<feBlend mode="normal" in="SourceGraphic" in2="BackgroundImageFix" result="shape"/>
<feGaussianBlur stdDeviation="334.672" result="effect1_foregroundBlur_1275_6439"/>
</filter>
<filter id="filter4_f_1275_6439" x="428.766" y="-421.82" width="1719.12" height="1755.8" filterUnits="userSpaceOnUse" color-interpolation-filters="sRGB">
<feFlood flood-opacity="0" result="BackgroundImageFix"/>
<feBlend mode="normal" in="SourceGraphic" in2="BackgroundImageFix" result="shape"/>
<feGaussianBlur stdDeviation="334.672" result="effect1_foregroundBlur_1275_6439"/>
</filter>
<filter id="filter5_f_1275_6439" x="622.302" y="-484.765" width="1724.16" height="1751.52" filterUnits="userSpaceOnUse" color-interpolation-filters="sRGB">
<feFlood flood-opacity="0" result="BackgroundImageFix"/>
<feBlend mode="normal" in="SourceGraphic" in2="BackgroundImageFix" result="shape"/>
<feGaussianBlur stdDeviation="334.672" result="effect1_foregroundBlur_1275_6439"/>
</filter>
<filter id="filter6_f_1275_6439" x="641.719" y="-169.476" width="1700.89" height="1761.66" filterUnits="userSpaceOnUse" color-interpolation-filters="sRGB">
<feFlood flood-opacity="0" result="BackgroundImageFix"/>
<feBlend mode="normal" in="SourceGraphic" in2="BackgroundImageFix" result="shape"/>
<feGaussianBlur stdDeviation="334.672" result="effect1_foregroundBlur_1275_6439"/>
</filter>
<linearGradient id="paint0_linear_1275_6439" x1="-7.04077" y1="299.453" x2="2391.46" y2="299.453" gradientUnits="userSpaceOnUse">
<stop stop-color="#270A4B"/>
<stop offset="0.2392" stop-color="#1B0843"/>
<stop offset="0.6591" stop-color="#16032F"/>
<stop offset="1" stop-color="#160033"/>
</linearGradient>
<clipPath id="clip0_1275_6439">
<rect width="1920" height="1080" fill="white"/>
</clipPath>
</defs>
</svg>
