<?xml version="1.0" encoding="UTF-8"?><svg id="Layer_1" xmlns="http://www.w3.org/2000/svg" viewBox="0 0 1280 1280"><defs><style>.cls-1{fill:#0c0c0c;}.cls-2{fill:#bf0;}.cls-3{fill:#ff0092;}.cls-4{fill:#f2f2f2;}</style></defs><g><circle class="cls-1" cx="640" cy="640" r="640"/><path class="cls-3" d="M789.06,600.05h-40.99l-30.5,36.17h47.38l30.26-35.92c-2.05-.12-4.1-.24-6.15-.24Zm120.67-251.23l-61.72-63.17c-15.43-15.79-36.89-24.83-58.95-24.83H491.9c-21.94,0-43.28,8.92-58.59,24.59l-62.69,63.41c-30.14,30.5-32.07,78.24-4.46,110.91l28.21,33.51,23.39,27.73,25.56-25.8-23.39-27.85-26.04-30.86c-15.55-18.32-14.47-45.08,2.41-62.2l62.69-63.53c8.68-8.68,20.61-13.74,32.91-13.74h297.16c12.42,0,24.47,5.06,33.03,13.98l61.72,63.17c16.76,17.12,17.72,43.76,2.29,62.08l-25.8,30.62-23.39,27.73,25.43,26.04,23.39-27.85,28.09-33.27c27.49-32.55,25.68-80.17-4.1-110.67Zm-378.05,251.23h-39.78c-2.41,0-4.82,.12-7.23,.36l30.14,35.8h47.38l-30.5-36.17Z"/><path class="cls-4" d="M909.74,517.35l-23.99-24.59-25.44-25.92-12.3-12.66c-15.43-15.79-36.89-24.83-58.95-24.83H491.9c-21.94,0-43.28,8.92-58.59,24.47l-13.38,13.5-25.56,25.92-23.75,23.99c-30.14,30.5-32.07,78.24-4.46,111.03l29.18,34.6,23.39,27.85,25.56-25.92-23.27-27.73-27.12-32.19c-15.55-18.32-14.47-45.09,2.41-62.21l21.46-21.7,25.56-25.8,15.67-15.91c8.68-8.8,20.61-13.74,32.91-13.74h297.16c12.42,0,24.47,5.06,33.03,13.86l14.83,15.19,25.43,26.04,21.46,21.94c16.76,17.12,17.72,43.88,2.29,62.09l-26.77,31.82-23.39,27.73,25.44,26.04,23.39-27.73,29.05-34.48c27.49-32.67,25.68-80.29-4.1-110.67Z"/><path class="cls-2" d="M909.74,688.05l-24.95-25.56-25.44-26.04-11.33-11.57c-13.98-14.34-32.91-23.02-52.8-24.59-2.05-.12-4.1-.24-6.15-.24H491.9c-2.41,0-4.82,.12-7.23,.36-19.29,1.69-37.73,10.25-51.36,24.11l-12.3,12.54-25.68,25.8-24.71,25.07c-30.14,30.5-32.07,78.24-4.46,111.03l210.72,250.02c15.67,18.69,38.7,29.3,63.05,29.3s47.26-10.61,62.92-29.3l210.97-250.27c27.49-32.67,25.68-80.17-4.1-110.67Zm-23.63,87.28l-210.84,250.39c-8.8,10.49-21.7,16.4-35.32,16.4s-26.64-5.91-35.44-16.4l-210.6-250.02c-15.55-18.44-14.47-45.21,2.41-62.32l22.42-22.67,25.56-25.92,14.71-14.83c8.68-8.8,20.61-13.74,32.91-13.74h297.16c12.42,0,24.47,5.07,33.03,13.87l13.86,14.1,25.44,26.04,22.42,23.03c16.76,17.12,17.72,43.88,2.29,62.08Z"/></g><g><path class="cls-1" d="M1103.41,1119.53h17.8v3.41h-6.79v22.1h-4.18v-22.1h-6.83v-3.41Z"/><path class="cls-1" d="M1125.44,1119.53h4.52l8.96,20.01,8.92-20.01h4.48v25.51h-4.18v-17.47l-7.78,17.47h-2.9l-7.82-17.47v17.47h-4.18v-25.51Z"/></g></svg>