<?xml version="1.0" encoding="UTF-8"?><svg id="Layer_1" xmlns="http://www.w3.org/2000/svg" viewBox="0 0 1280 306.92"><defs><style>.cls-1{fill:#0c0c0c;}.cls-2{fill:#bf0;}.cls-3{fill:#ff0092;}.cls-4{fill:#f2f2f2;}</style></defs><path class="cls-4" d="M466.76,87.32c-2.07,0-3.74,1.67-3.74,3.74v107.16h-2.36l-54.6-108.84c-.63-1.26-1.93-2.06-3.34-2.06h-36.17c-2.07,0-3.74,1.67-3.74,3.74v124.8c0,2.07,1.67,3.74,3.74,3.74h16.44c2.07,0,3.74-1.67,3.74-3.74V108.7h2.54l54.6,108.84c.63,1.26,1.93,2.06,3.34,2.06h36.35c2.07,0,3.74-1.67,3.74-3.74V91.06c0-2.07-1.67-3.74-3.74-3.74h-16.8Z"/><path class="cls-4" d="M582.58,105.32v-14.26c0-2.07-1.67-3.74-3.74-3.74h-70.08c-2.07,0-3.74,1.67-3.74,3.74v124.8c0,2.07,1.67,3.74,3.74,3.74h18.25c2.07,0,3.74-1.67,3.74-3.74v-47.63c0-2.06,1.67-3.73,3.73-3.74l41.84-.14c2.06,0,3.73-1.68,3.73-3.74v-14.26c0-2.07-1.68-3.75-3.75-3.74l-41.78,.14c-2.07,0-3.75-1.67-3.75-3.74v-26.2c0-2.07,1.67-3.74,3.74-3.74h44.35c2.07,0,3.74-1.67,3.74-3.74Z"/><path class="cls-4" d="M694.97,87.32h-94.72c-2.07,0-3.74,1.67-3.74,3.74v15.17c0,2.07,1.67,3.74,3.74,3.74h30.76c2.07,0,3.74,1.67,3.74,3.74v102.15c0,2.07,1.67,3.74,3.74,3.74h18.25c2.07,0,3.74-1.67,3.74-3.74V113.71c0-2.07,1.67-3.74,3.74-3.74h30.75c2.07,0,3.74-1.67,3.74-3.74v-15.17c0-2.07-1.67-3.74-3.74-3.74Z"/><path class="cls-4" d="M827.55,90.04l-29.7,105.45c-.45,1.61-1.93,2.73-3.6,2.73h-.69c-1.64,0-3.1-1.07-3.58-2.65l-32.25-105.61c-.48-1.57-1.93-2.65-3.58-2.65h-18.75c-2.53,0-4.33,2.46-3.56,4.88l39.83,124.8c.49,1.55,1.94,2.6,3.56,2.6h36.88c1.66,0,3.12-1.09,3.59-2.68l36.93-124.8c.71-2.4-1.09-4.8-3.59-4.8h-17.89c-1.68,0-3.15,1.11-3.6,2.73Z"/><path class="cls-4" d="M894.58,194.12v-27.13c0-2.07,1.67-3.74,3.74-3.74h44.17c2.07,0,3.74-1.67,3.74-3.74v-14.26c0-2.07-1.67-3.74-3.74-3.74h-44.17c-2.07,0-3.74-1.67-3.74-3.74v-24.96c0-2.07,1.67-3.74,3.74-3.74h47.43c2.07,0,3.74-1.67,3.74-3.74v-14.26c0-2.07-1.67-3.74-3.74-3.74h-72.62c-2.07,0-3.74,1.67-3.74,3.74v124.8c0,2.07,1.67,3.74,3.74,3.74h74.07c2.07,0,3.74-1.67,3.74-3.74v-14.26c0-2.07-1.67-3.74-3.74-3.74h-48.88c-2.07,0-3.74-1.67-3.74-3.74Z"/><path class="cls-4" d="M1070.47,220.06c3.06,0,4.82-3.47,3.03-5.94l-30.97-42.64c.34-.13,.71-.22,1.04-.35,7.73-3.14,13.74-7.85,18.03-14.13,4.29-6.28,6.43-14.32,6.43-24.1v-2.9c0-9.67-2.11-17.7-6.34-24.1-4.23-6.4-10.24-11.17-18.03-14.32-7.79-3.14-17.01-4.71-27.63-4.71h-45.37c-2.07,0-3.74,1.67-3.74,3.74v125.71c0,2.07,1.67,3.74,3.74,3.74h18.25c2.07,0,3.74-1.67,3.74-3.74v-36.74c0-2.07,1.67-3.74,3.74-3.74h19.64c.19,0,.36-.02,.55-.02l30.04,42.65c.7,.99,1.84,1.59,3.06,1.59h20.8Zm-77.83-107.53c0-2.07,1.67-3.74,3.74-3.74h22.35c4.71,0,8.79,.97,12.23,2.9,3.44,1.94,6.13,4.65,8.07,8.16,1.93,3.5,2.9,7.55,2.9,12.14s-.97,8.46-2.9,11.96c-1.93,3.5-4.62,6.22-8.07,8.15-3.44,1.94-7.52,2.9-12.23,2.9h-22.35c-2.07,0-3.74-1.67-3.74-3.74v-38.73Z"/><path class="cls-4" d="M1179,161.07c-3.93-5.56-9.45-9.96-16.58-13.23-7.13-3.26-15.4-5.26-24.83-5.98l-11.6-1.09c-6.52-.48-11.3-2.26-14.32-5.35-3.02-3.08-4.53-6.67-4.53-10.78,0-3.38,.84-6.52,2.54-9.42,1.69-2.9,4.23-5.19,7.61-6.89,3.38-1.69,7.61-2.54,12.68-2.54s9.69,.94,13.14,2.81c3.44,1.87,6.04,4.35,7.79,7.43,1.23,2.16,2.02,4.45,2.39,6.87,.28,1.83,1.82,3.19,3.67,3.19h17.86c2.22,0,3.91-1.93,3.74-4.14-.55-6.86-2.49-12.94-5.82-18.24-3.99-6.34-9.6-11.27-16.85-14.77-7.25-3.5-15.89-5.25-25.91-5.25s-18.09,1.66-25.28,4.98c-7.19,3.32-12.78,8.04-16.76,14.14-3.99,6.1-5.98,13.38-5.98,21.84,0,11.23,3.77,20.27,11.33,27.09,7.55,6.83,17.67,10.78,30.35,11.87l11.6,.91c8.34,.72,14.5,2.51,18.48,5.34,3.99,2.84,5.98,6.62,5.98,11.33,0,3.75-1.03,7.1-3.08,10.06-2.05,2.96-5.2,5.35-9.42,7.16-4.23,1.81-9.49,2.72-15.77,2.72-7.01,0-12.66-1.02-16.94-3.08-4.29-2.05-7.4-4.74-9.33-8.07-1.36-2.33-2.24-4.7-2.64-7.12-.3-1.8-1.83-3.12-3.66-3.12h-17.87c-2.23,0-3.93,1.95-3.74,4.17,.6,6.67,2.65,12.74,6.16,18.21,4.23,6.59,10.36,11.75,18.39,15.49,8.03,3.74,17.91,5.62,29.63,5.62,10.87,0,20.32-1.75,28.36-5.26,8.03-3.5,14.22-8.43,18.57-14.77,4.35-6.34,6.52-13.68,6.52-22.02,0-7.85-1.97-14.56-5.89-20.12Z"/><path class="cls-4" d="M1223.64,194.12v-27.13c0-2.07,1.67-3.74,3.74-3.74h44.17c2.07,0,3.74-1.67,3.74-3.74v-14.26c0-2.07-1.67-3.74-3.74-3.74h-44.17c-2.07,0-3.74-1.67-3.74-3.74v-24.96c0-2.07,1.67-3.74,3.74-3.74h47.43c2.07,0,3.74-1.67,3.74-3.74v-14.26c0-2.07-1.67-3.74-3.74-3.74h-72.62c-2.07,0-3.74,1.67-3.74,3.74v124.8c0,2.07,1.67,3.74,3.74,3.74h74.07c2.07,0,3.74-1.67,3.74-3.74v-14.26c0-2.07-1.67-3.74-3.74-3.74h-48.88c-2.07,0-3.74-1.67-3.74-3.74Z"/><circle class="cls-1" cx="153.46" cy="153.46" r="153.46"/><path class="cls-3" d="M189.2,143.88h-9.83l-7.31,8.67h11.36l7.26-8.61c-.49-.03-.98-.06-1.47-.06Zm28.93-60.24l-14.8-15.15c-3.7-3.79-8.85-5.95-14.13-5.95H117.95c-5.26,0-10.38,2.14-14.05,5.9l-15.03,15.2c-7.23,7.31-7.69,18.76-1.07,26.59l6.76,8.04,5.61,6.65,6.13-6.19-5.61-6.68-6.24-7.4c-3.73-4.39-3.47-10.81,.58-14.92l15.03-15.23c2.08-2.08,4.94-3.29,7.89-3.29h71.25c2.98,0,5.87,1.21,7.92,3.35l14.8,15.15c4.02,4.1,4.25,10.49,.55,14.89l-6.19,7.34-5.61,6.65,6.1,6.24,5.61-6.68,6.73-7.98c6.59-7.8,6.16-19.22-.98-26.54Zm-90.65,60.24h-9.54c-.58,0-1.16,.03-1.73,.09l7.23,8.58h11.36l-7.31-8.67Z"/><path class="cls-4" d="M218.14,124.05l-5.75-5.9-6.1-6.22-2.95-3.03c-3.7-3.79-8.85-5.95-14.13-5.95H117.95c-5.26,0-10.38,2.14-14.05,5.87l-3.21,3.24-6.13,6.22-5.69,5.75c-7.23,7.31-7.69,18.76-1.07,26.62l7,8.3,5.61,6.68,6.13-6.21-5.58-6.65-6.5-7.72c-3.73-4.39-3.47-10.81,.58-14.92l5.15-5.2,6.13-6.19,3.76-3.82c2.08-2.11,4.94-3.29,7.89-3.29h71.25c2.98,0,5.87,1.21,7.92,3.32l3.56,3.64,6.1,6.24,5.15,5.26c4.02,4.11,4.25,10.52,.55,14.89l-6.42,7.63-5.61,6.65,6.1,6.24,5.61-6.65,6.97-8.27c6.59-7.83,6.16-19.25-.98-26.54Z"/><path class="cls-2" d="M218.14,164.98l-5.98-6.13-6.1-6.24-2.72-2.77c-3.35-3.44-7.89-5.52-12.66-5.9-.49-.03-.98-.06-1.47-.06H117.95c-.58,0-1.16,.03-1.73,.09-4.63,.41-9.05,2.46-12.31,5.78l-2.95,3.01-6.16,6.19-5.93,6.01c-7.23,7.31-7.69,18.76-1.07,26.62l50.53,59.95c3.76,4.48,9.28,7.02,15.12,7.02s11.33-2.54,15.09-7.02l50.59-60.01c6.59-7.83,6.16-19.22-.98-26.54Zm-5.67,20.93l-50.56,60.04c-2.11,2.51-5.2,3.93-8.47,3.93s-6.39-1.42-8.5-3.93l-50.5-59.95c-3.73-4.42-3.47-10.84,.58-14.94l5.38-5.43,6.13-6.21,3.53-3.56c2.08-2.11,4.94-3.3,7.89-3.3h71.25c2.98,0,5.87,1.21,7.92,3.32l3.32,3.38,6.1,6.24,5.38,5.52c4.02,4.1,4.25,10.52,.55,14.89Z"/></svg>