<svg width="326" height="174" viewBox="0 0 326 174" fill="none" xmlns="http://www.w3.org/2000/svg">
<rect opacity="0.5" y="-0.000488281" width="326" height="174" rx="20" fill="url(#paint0_linear_37_92)"/>
<mask id="mask0_37_92" style="mask-type:alpha" maskUnits="userSpaceOnUse" x="0" y="-1" width="326" height="175">
<rect y="-0.000488281" width="326" height="174" rx="20" fill="white"/>
</mask>
<g mask="url(#mask0_37_92)">
<g filter="url(#filter0_f_37_92)">
<path d="M439.081 277.29C468.835 320.128 505.601 324.444 536.319 303.108C600.416 258.589 360.568 -135.382 267.342 -155.519C198.829 -170.318 147.26 -126.501 158.429 -68.499C171.05 -2.95113 164.566 -1.98647 216.321 35.0792C259.504 66.0059 315.036 96.2988 358.748 132.882C399.661 167.124 412.653 239.239 439.081 277.29Z" fill="#5D0C8F" fill-opacity="0.4"/>
</g>
</g>
<defs>
<filter id="filter0_f_37_92" x="96.9036" y="-218.417" width="510.155" height="594.03" filterUnits="userSpaceOnUse" color-interpolation-filters="sRGB">
<feFlood flood-opacity="0" result="BackgroundImageFix"/>
<feBlend mode="normal" in="SourceGraphic" in2="BackgroundImageFix" result="shape"/>
<feGaussianBlur stdDeviation="30" result="effect1_foregroundBlur_37_92"/>
</filter>
<linearGradient id="paint0_linear_37_92" x1="163" y1="-0.000488281" x2="163" y2="174" gradientUnits="userSpaceOnUse">
<stop stop-color="#D0B7FA" stop-opacity="0.49"/>
<stop offset="1" stop-color="#A16DF5" stop-opacity="0.38"/>
</linearGradient>
</defs>
</svg>
