<svg id="SvgjsSvg1020" width="288" height="288" xmlns="http://www.w3.org/2000/svg" version="1.1" xmlns:xlink="http://www.w3.org/1999/xlink" xmlns:svgjs="http://svgjs.com/svgjs"><defs id="SvgjsDefs1021"></defs><g id="SvgjsG1022"><svg xmlns="http://www.w3.org/2000/svg" fill="none" viewBox="0 0 22 25" width="288" height="288"><path fill="#ffffff" d="M19.4521 11.4948L18.2888 20.2163C18.2673 20.3774 18.188 20.5253 18.0657 20.6323C17.9433 20.7393 17.7863 20.7983 17.6238 20.7983H3.84787C3.68532 20.7983 3.5283 20.7393 3.40597 20.6323C3.28365 20.5253 3.20435 20.3774 3.18281 20.2163L2.01959 11.4948C2.00692 11.4 2.01465 11.3036 2.04228 11.2121C2.0699 11.1205 2.11677 11.036 2.17974 10.964C2.24272 10.8921 2.32035 10.8344 2.40743 10.7949C2.49451 10.7554 2.58903 10.735 2.68465 10.735H18.787C18.8826 10.735 18.9771 10.7554 19.0642 10.7949C19.1513 10.8344 19.2289 10.8921 19.2919 10.964C19.3549 11.036 19.4017 11.1205 19.4294 11.2121C19.457 11.3036 19.4647 11.4 19.4521 11.4948Z" opacity=".2" class="color08064B svgShape"></path><g clip-path="url(#a)" fill="#ffffff" class="color000 svgShape"><path stroke="#ffffff" stroke-linecap="round" stroke-linejoin="round" stroke-width=".392" d="M11.2969 5.36137H10.2725M10.6453 4.286V3.92493M11.2498 4.286V3.92493M10.6453 7.06469V6.63297M11.2498 7.06469V6.63297M11.2891 5.36137C11.3603 5.36241 11.4311 5.34927 11.4973 5.32272C11.5634 5.29616 11.6236 5.25672 11.6744 5.20669C11.7252 5.15665 11.7655 5.09703 11.793 5.03128C11.8205 4.96552 11.8347 4.89496 11.8346 4.82368C11.8346 4.68108 11.778 4.54432 11.6771 4.44348C11.5763 4.34265 11.4395 4.286 11.2969 4.286H10.4687C10.4167 4.286 10.3667 4.30667 10.3299 4.34348C10.2931 4.38028 10.2725 4.43019 10.2725 4.48223V6.44459C10.2725 6.49663 10.2931 6.54655 10.3299 6.58335C10.3667 6.62015 10.4167 6.64082 10.4687 6.64082H11.2891C11.4577 6.64082 11.6194 6.57384 11.7387 6.4546C11.8579 6.33536 11.9249 6.17365 11.9249 6.00502C11.9249 5.8364 11.8579 5.67468 11.7387 5.55544C11.6194 5.4362 11.4577 5.36922 11.2891 5.36922V5.36137Z" class="colorStroke08064B svgStroke"></path><path stroke="#ffffff" stroke-linecap="round" stroke-linejoin="round" stroke-width=".392" d="M10.9434 8.04554C12.3525 8.04554 13.4947 6.90339 13.4947 5.49448C13.4947 4.08557 12.3525 2.94342 10.9434 2.94342C9.53435 2.94342 8.39209 4.08557 8.39209 5.49448C8.39209 6.90339 9.53435 8.04554 10.9434 8.04554Z" class="colorStroke08064B svgStroke"></path></g><path fill="#ffffff" fill-rule="evenodd" d="M15.1781 5.87195L19.0449 10.0405L19.0008 10.0814C19.1169 10.1005 19.2303 10.1348 19.3379 10.1837C19.5119 10.2627 19.6671 10.3779 19.7929 10.5217C19.9188 10.6655 20.0124 10.8345 20.0677 11.0174C20.1229 11.2003 20.1385 11.3929 20.1133 11.5823H20.1141L18.9517 20.3047C18.9086 20.6271 18.7499 20.9228 18.5051 21.1369C18.2603 21.3511 17.946 21.469 17.6208 21.4687H3.84489C3.51964 21.469 3.20538 21.3511 2.96056 21.1369C2.71574 20.9228 2.55702 20.6271 2.51393 20.3047L1.3507 11.5832C1.32535 11.3936 1.34084 11.2007 1.39613 11.0176C1.45143 10.8345 1.54524 10.6653 1.67129 10.5213C1.79734 10.3774 1.9527 10.2621 2.12696 10.1832C2.2602 10.1228 2.40213 10.0848 2.54708 10.0703L2.51495 10.0405L6.38179 5.87195L7.3041 6.7274L4.20935 10.0636H5.73188H6.97226H8.4036C8.72582 10.0726 8.98306 10.0775 9.01379 10.0636C9.06656 10.0398 9.6956 10.0449 10.2018 10.0526C10.1889 10.0553 10.1861 10.0589 10.1965 10.0636C10.2273 10.0775 10.4482 10.0726 10.7236 10.0636H15.7338H17.3505L14.2558 6.7274L15.1781 5.87195ZM10.7237 10.0636L10.7236 10.0636L10.1965 10.0636H10.7237ZM10.7602 10.0624L10.7237 10.0636H10.8402H11.9491C11.9133 10.023 11.3786 10.0413 10.9085 10.0574L10.8145 10.0606C10.693 10.0534 10.2769 10.0372 10.2018 10.0526C10.3842 10.0554 10.5507 10.0585 10.6684 10.0607L10.7602 10.0624ZM10.7602 10.0624C10.8021 10.0632 10.83 10.0636 10.8402 10.0636C10.857 10.0636 10.8451 10.0624 10.8145 10.0606L10.7602 10.0624ZM8.40357 10.0636L8.18933 10.0574C7.63808 10.0413 7.00815 10.0229 6.97226 10.0636L8.40357 10.0636ZM8.40357 10.0636H9.01379L8.4036 10.0636L8.40357 10.0636ZM11.4038 13.4181V18.1143C11.4038 18.2922 11.3331 18.4629 11.2073 18.5887C11.0814 18.7145 10.9108 18.7852 10.7328 18.7852C10.5549 18.7852 10.3842 18.7145 10.2584 18.5887C10.1326 18.4629 10.0619 18.2922 10.0619 18.1143V13.4181C10.0619 13.2401 10.1326 13.0695 10.2584 12.9437C10.3842 12.8179 10.5549 12.7472 10.7328 12.7472C10.9108 12.7472 11.0814 12.8179 11.2073 12.9437C11.3331 13.0695 11.4038 13.2401 11.4038 13.4181ZM18.784 11.4054H2.68166L3.84489 20.127H17.6208L18.784 11.4054ZM14.4934 13.351L14.0238 18.0472C14.0145 18.1351 14.0227 18.224 14.0479 18.3088C14.073 18.3935 14.1147 18.4724 14.1705 18.541C14.2264 18.6096 14.2952 18.6665 14.373 18.7084C14.4509 18.7503 14.5363 18.7764 14.6242 18.7852C14.6469 18.7864 14.6695 18.7864 14.6922 18.7852C14.8584 18.785 15.0185 18.7231 15.1417 18.6116C15.2649 18.5 15.3423 18.3467 15.3589 18.1814L15.8286 13.4852C15.8464 13.3081 15.7931 13.1313 15.6805 12.9935C15.5679 12.8557 15.4051 12.7683 15.2281 12.7505C15.051 12.7327 14.8742 12.786 14.7364 12.8986C14.5986 13.0112 14.5112 13.1739 14.4934 13.351ZM6.97226 13.351C6.95447 13.1739 6.86707 13.0112 6.72929 12.8986C6.59152 12.786 6.41465 12.7327 6.23759 12.7505C6.06054 12.7683 5.89781 12.8557 5.7852 12.9935C5.67259 13.1313 5.61932 13.3081 5.63711 13.4852L6.10676 18.1814C6.12345 18.3474 6.20144 18.5013 6.3255 18.613C6.44956 18.7246 6.61079 18.786 6.77769 18.7852C6.80032 18.7864 6.823 18.7864 6.84563 18.7852C6.93329 18.7764 7.01837 18.7504 7.09599 18.7087C7.17361 18.667 7.24227 18.6104 7.29803 18.5422C7.35379 18.474 7.39556 18.3955 7.42097 18.3111C7.44638 18.2268 7.45492 18.1382 7.44611 18.0506L6.97226 13.351Z" clip-rule="evenodd" class="color08064B svgShape"></path><defs><clipPath id="a"><rect width="5.495" height="5.495" fill="#ffffff" transform="translate(8.196 2.748)" class="colorfff svgShape"></rect></clipPath></defs></svg></g></svg>