<svg width="16" height="16" viewBox="0 0 16 16" fill="none" xmlns="http://www.w3.org/2000/svg">
<path d="M3.90732 3.99247V10.264C3.90723 10.8845 4.14316 11.4819 4.56727 11.9348C4.99137 12.3878 5.5719 12.6625 6.19108 12.7032L6.35142 12.7081H10.6667C10.5656 12.994 10.3784 13.2415 10.1309 13.4166C9.8833 13.5917 9.58754 13.6857 9.28433 13.6857H5.8626C5.08474 13.6857 4.33874 13.3767 3.78872 12.8267C3.23869 12.2767 2.92969 11.5307 2.92969 10.7528V5.37583C2.92953 5.07244 3.02347 4.77648 3.19857 4.52872C3.37366 4.28096 3.62129 4.0936 3.90732 3.99247ZM11.2396 1.9541C11.6285 1.9541 12.0015 2.1086 12.2765 2.38362C12.5516 2.65863 12.7061 3.03163 12.7061 3.42056V10.264C12.7061 10.6529 12.5516 11.0259 12.2765 11.301C12.0015 11.576 11.6285 11.7305 11.2396 11.7305H6.35142C5.96249 11.7305 5.58949 11.576 5.31448 11.301C5.03946 11.0259 4.88496 10.6529 4.88496 10.264V3.42056C4.88496 3.03163 5.03946 2.65863 5.31448 2.38362C5.58949 2.1086 5.96249 1.9541 6.35142 1.9541H11.2396ZM11.2396 2.93174H6.35142C6.22177 2.93174 6.09744 2.98324 6.00577 3.07491C5.9141 3.16658 5.8626 3.29091 5.8626 3.42056V10.264C5.8626 10.3937 5.9141 10.518 6.00577 10.6097C6.09744 10.7013 6.22177 10.7528 6.35142 10.7528H11.2396C11.3692 10.7528 11.4936 10.7013 11.5852 10.6097C11.6769 10.518 11.7284 10.3937 11.7284 10.264V3.42056C11.7284 3.29091 11.6769 3.16658 11.5852 3.07491C11.4936 2.98324 11.3692 2.93174 11.2396 2.93174Z" fill="white"/>
</svg>
