<svg width="40" height="40" viewBox="0 0 40 40" fill="none" xmlns="http://www.w3.org/2000/svg">
<path d="M19.7227 0C15.8219 0 12.0087 1.17298 8.76536 3.37061C5.52198 5.56823 2.99407 8.69181 1.50131 12.3463C0.00854547 16.0009 -0.382029 20.0222 0.378975 23.9018C1.13998 27.7814 3.01838 31.3451 5.77665 34.1421C8.53491 36.9392 12.0492 38.844 15.875 39.6157C19.7008 40.3874 23.6664 39.9913 27.2702 38.4776C30.8741 36.9638 33.9543 34.4004 36.1215 31.1114C38.2887 27.8224 39.4454 23.9556 39.4454 20C39.4395 14.6975 37.3597 9.6139 33.6622 5.86447C29.9648 2.11504 24.9517 0.00598376 19.7227 0ZM19.7227 37.6471C16.2808 37.6471 12.9163 36.6121 10.0545 34.673C7.19265 32.7339 4.96214 29.9778 3.645 26.7532C2.32786 23.5287 1.98323 19.9804 2.65471 16.5572C3.32618 13.134 4.98359 9.98963 7.41736 7.52164C9.85112 5.05366 12.9519 3.37294 16.3277 2.69202C19.7034 2.01111 23.2024 2.36058 26.3823 3.69624C29.5622 5.03191 32.28 7.29377 34.1922 10.1958C36.1044 13.0979 37.1251 16.5097 37.1251 20C37.1198 24.6787 35.2847 29.1642 32.0222 32.4725C28.7598 35.7808 24.3365 37.6417 19.7227 37.6471V37.6471ZM22.4297 29.4118C22.4297 29.7238 22.3075 30.023 22.0899 30.2436C21.8723 30.4643 21.5773 30.5882 21.2696 30.5882H19.7227C19.415 30.5882 19.1199 30.4643 18.9024 30.2436C18.6848 30.023 18.5625 29.7238 18.5625 29.4118V19.6078H18.1758C17.8681 19.6078 17.573 19.4839 17.3555 19.2633C17.1379 19.0426 17.0157 18.7434 17.0157 18.4314C17.0157 18.1193 17.1379 17.8201 17.3555 17.5995C17.573 17.3788 17.8681 17.2549 18.1758 17.2549H19.7227C20.0304 17.2549 20.3255 17.3789 20.543 17.5995C20.7606 17.8201 20.8828 18.1194 20.8828 18.4314V28.2353H21.2696C21.5773 28.2353 21.8723 28.3593 22.0899 28.5799C22.3075 28.8005 22.4297 29.0997 22.4297 29.4118V29.4118ZM18.3554 12.7591C18.1306 12.531 17.9646 12.2503 17.8724 11.9417C17.7801 11.6332 17.7642 11.3063 17.8263 10.99C17.8883 10.6737 18.0263 10.3779 18.2281 10.1286C18.4298 9.87937 18.6891 9.68441 18.9828 9.56102C19.2766 9.43762 19.5959 9.3896 19.9123 9.42121C20.2288 9.45281 20.5327 9.56307 20.7971 9.74221C21.0615 9.92136 21.2782 10.1639 21.4281 10.4482C21.578 10.7326 21.6565 11.0501 21.6565 11.3725V11.3731C21.6563 11.7609 21.5428 12.1399 21.3303 12.4623C21.1177 12.7846 20.8157 13.0358 20.4624 13.1842C20.1091 13.3325 19.7204 13.3713 19.3453 13.2956C18.9703 13.22 18.6258 13.0332 18.3554 12.7591V12.7591Z" fill="#181818"/>
</svg>
