<svg width="462" height="274" viewBox="0 0 462 274" fill="none" xmlns="http://www.w3.org/2000/svg">
<g filter="url(#filter0_d_332_191)">
<path d="M16 44C16 21.9086 33.9086 4 56 4H406C428.091 4 446 21.9086 446 44V154H16V44Z" fill="url(#paint0_linear_332_191)" fill-opacity="0.75"/>
<circle cx="231" cy="153" r="60" fill="white"/>
<circle cx="231" cy="153" r="74" stroke="white" stroke-width="0.5"/>
<circle cx="231" cy="153" r="91.5" stroke="white" stroke-width="3"/>
<circle cx="231" cy="153" r="83" stroke="white" stroke-width="1.25"/>
<path d="M194.332 147.5C194.333 141.563 196.256 135.786 199.812 131.032C203.369 126.279 208.368 122.804 214.063 121.126C219.758 119.449 225.843 119.66 231.408 121.727C236.974 123.795 241.72 127.608 244.939 132.596C248.158 137.584 249.676 143.481 249.267 149.403C248.857 155.326 246.542 160.957 242.667 165.455C238.792 169.953 233.565 173.076 227.768 174.358C221.972 175.639 215.916 175.011 210.506 172.565C205.893 173.629 200.925 174.545 198.64 174.956C198.057 175.06 197.456 175.021 196.891 174.841C196.326 174.661 195.813 174.347 195.397 173.924C194.981 173.502 194.673 172.985 194.502 172.417C194.331 171.849 194.3 171.248 194.413 170.666C194.845 168.429 195.806 163.633 196.91 159.142C195.206 155.497 194.326 151.523 194.332 147.5ZM216.86 132.126C215.239 132.991 213.963 134.337 212.999 136.122C212.683 136.76 212.627 137.496 212.843 138.174C213.058 138.852 213.528 139.421 214.154 139.76C214.78 140.099 215.513 140.182 216.198 139.992C216.884 139.802 217.47 139.353 217.832 138.74C218.371 137.75 218.924 137.259 219.452 136.98C220.002 136.683 220.75 136.504 221.832 136.504C222.653 136.504 223.618 136.793 224.325 137.376C224.952 137.89 225.499 138.711 225.499 140.167C225.499 140.882 225.224 141.212 223.343 142.689C221.693 143.987 219.082 146.092 219.082 150.25C219.082 150.979 219.372 151.679 219.888 152.195C220.403 152.71 221.103 153 221.832 153C222.561 153 223.261 152.71 223.777 152.195C224.292 151.679 224.582 150.979 224.582 150.25C224.582 148.893 225.183 148.237 226.738 147.012L227.05 146.774C228.469 145.681 230.999 143.742 230.999 140.167C230.999 137.057 229.712 134.674 227.816 133.119C226.12 131.755 224.009 131.009 221.832 131.004C220.164 131.004 218.451 131.275 216.86 132.126ZM225.499 160.333C225.499 159.361 225.112 158.428 224.425 157.741C223.737 157.053 222.805 156.667 221.832 156.667C220.86 156.667 219.927 157.053 219.239 157.741C218.552 158.428 218.165 159.361 218.165 160.333C218.165 161.306 218.552 162.238 219.239 162.926C219.927 163.614 220.86 164 221.832 164C222.805 164 223.737 163.614 224.425 162.926C225.112 162.238 225.499 161.306 225.499 160.333ZM221.465 178.667C226.546 183.39 233.229 186.01 240.165 186C244.071 186.005 247.933 185.175 251.492 183.565C256.112 184.629 261.102 185.545 263.401 185.949C263.986 186.052 264.587 186.011 265.152 185.829C265.718 185.648 266.23 185.331 266.646 184.907C267.061 184.482 267.367 183.963 267.536 183.394C267.705 182.825 267.733 182.223 267.618 181.64C266.857 177.79 266.014 173.956 265.088 170.142C266.718 166.651 267.597 162.857 267.668 159.005C267.738 155.152 266.999 151.328 265.498 147.78C263.997 144.232 261.767 141.039 258.953 138.407C256.139 135.775 252.804 133.764 249.163 132.503C251.784 137.277 253.109 142.655 253.004 148.1C252.9 153.545 251.37 158.867 248.568 163.537C245.766 168.207 241.79 172.062 237.034 174.716C232.279 177.371 226.911 178.733 221.465 178.667Z" fill="#BBFF00"/>
<path d="M104.5 62L106.184 67.8734L111.633 67.8734L107.225 71.5033L108.908 77.3766L104.5 73.7467L100.092 77.3766L101.775 71.5033L97.3671 67.8734L102.816 67.8734L104.5 62Z" fill="white"/>
<path d="M210.5 26L211.51 29.8004H214.78L212.135 32.1492L213.145 35.9496L210.5 33.6008L207.855 35.9496L208.865 32.1492L206.22 29.8004H209.49L210.5 26Z" fill="white"/>
<path d="M386.5 54L388.184 59.8734L393.633 59.8734L389.225 63.5033L390.908 69.3766L386.5 65.7467L382.092 69.3766L383.775 63.5033L379.367 59.8734L384.816 59.8734L386.5 54Z" fill="white"/>
<path d="M349.5 99L350.061 100.727H351.878L350.408 101.795L350.969 103.523L349.5 102.455L348.031 103.523L348.592 101.795L347.122 100.727H348.939L349.5 99Z" fill="white"/>
<path d="M344.5 21L345.061 22.7275H346.878L345.408 23.7951L345.969 25.5225L344.5 24.4549L343.031 25.5225L343.592 23.7951L342.122 22.7275H343.939L344.5 21Z" fill="white"/>
<path d="M107.5 117L108.061 118.727H109.878L108.408 119.795L108.969 121.523L107.5 120.455L106.031 121.523L106.592 119.795L105.122 118.727H106.939L107.5 117Z" fill="white"/>
<path d="M150.5 49L151.061 50.7275H152.878L151.408 51.7951L151.969 53.5225L150.5 52.4549L149.031 53.5225L149.592 51.7951L148.122 50.7275H149.939L150.5 49Z" fill="white"/>
<path d="M344.5 138L345.061 139.727H346.878L345.408 140.795L345.969 142.523L344.5 141.455L343.031 142.523L343.592 140.795L342.122 139.727H343.939L344.5 138Z" fill="white"/>
<path d="M406.5 93L407.061 94.7275H408.878L407.408 95.7951L407.969 97.5225L406.5 96.4549L405.031 97.5225L405.592 95.7951L404.122 94.7275H405.939L406.5 93Z" fill="white"/>
<path d="M283.5 44L284.061 45.7275H285.878L284.408 46.7951L284.969 48.5225L283.5 47.4549L282.031 48.5225L282.592 46.7951L281.122 45.7275H282.939L283.5 44Z" fill="white"/>
<path d="M62.5 93L63.0613 94.7275H64.8776L63.4082 95.7951L63.9695 97.5225L62.5 96.4549L61.0305 97.5225L61.5918 95.7951L60.1224 94.7275H61.9387L62.5 93Z" fill="white"/>
</g>
<defs>
<filter id="filter0_d_332_191" x="0" y="0" width="462" height="279" filterUnits="userSpaceOnUse" color-interpolation-filters="sRGB">
<feFlood flood-opacity="0" result="BackgroundImageFix"/>
<feColorMatrix in="SourceAlpha" type="matrix" values="0 0 0 0 0 0 0 0 0 0 0 0 0 0 0 0 0 0 127 0" result="hardAlpha"/>
<feOffset dy="12"/>
<feGaussianBlur stdDeviation="8"/>
<feComposite in2="hardAlpha" operator="out"/>
<feColorMatrix type="matrix" values="0 0 0 0 0 0 0 0 0 0 0 0 0 0 0 0 0 0 0.05 0"/>
<feBlend mode="normal" in2="BackgroundImageFix" result="effect1_dropShadow_332_191"/>
<feBlend mode="normal" in="SourceGraphic" in2="effect1_dropShadow_332_191" result="shape"/>
</filter>
<linearGradient id="paint0_linear_332_191" x1="440.5" y1="19.5" x2="16" y2="184" gradientUnits="userSpaceOnUse">
<stop stop-color="#BBFF00"/>
<stop offset="1" stop-color="#88AB29"/>
</linearGradient>
</defs>
</svg>
