<svg width="52" height="51" viewBox="0 0 52 51" fill="none" xmlns="http://www.w3.org/2000/svg">
<g filter="url(#filter0_di_2_44)">
<ellipse cx="25.7725" cy="21.7715" rx="21.7725" ry="21.7714" fill="url(#paint0_linear_2_44)"/>
</g>
<path d="M27.9753 30.2703C27.638 30.6076 27.22 30.7763 26.7213 30.7763C26.2227 30.7763 25.8047 30.6076 25.4673 30.2703L17.7233 22.5263C17.562 22.365 17.4335 22.1743 17.3379 21.9543C17.2423 21.7343 17.1947 21.4996 17.1953 21.2503V14.9583C17.1953 14.4743 17.3678 14.0598 17.7128 13.7149C18.0577 13.3699 18.4719 13.1977 18.9553 13.1983H25.2473C25.4967 13.1983 25.7313 13.2461 25.9513 13.3417C26.1713 13.4374 26.362 13.5656 26.5233 13.7263L34.2673 21.4923C34.6047 21.8296 34.7733 22.2441 34.7733 22.7357C34.7733 23.2274 34.6047 23.6415 34.2673 23.9783L27.9753 30.2703ZM26.7213 29.0383L33.0133 22.7463L25.2473 14.9583H18.9553V21.2503L26.7213 29.0383ZM21.1553 18.4783C21.522 18.4783 21.8338 18.3498 22.0908 18.0929C22.3477 17.8359 22.4759 17.5244 22.4753 17.1583C22.4753 16.7916 22.3468 16.4798 22.0899 16.2229C21.8329 15.9659 21.5214 15.8377 21.1553 15.8383C20.7887 15.8383 20.4768 15.9668 20.2199 16.2237C19.9629 16.4807 19.8347 16.7922 19.8353 17.1583C19.8353 17.525 19.9638 17.8368 20.2208 18.0937C20.4777 18.3507 20.7892 18.4789 21.1553 18.4783Z" fill="white"/>
<defs>
<filter id="filter0_di_2_44" x="0.400113" y="6.10352e-05" width="50.7448" height="50.7426" filterUnits="userSpaceOnUse" color-interpolation-filters="sRGB">
<feFlood flood-opacity="0" result="BackgroundImageFix"/>
<feColorMatrix in="SourceAlpha" type="matrix" values="0 0 0 0 0 0 0 0 0 0 0 0 0 0 0 0 0 0 127 0" result="hardAlpha"/>
<feOffset dy="3.59989"/>
<feGaussianBlur stdDeviation="1.79994"/>
<feComposite in2="hardAlpha" operator="out"/>
<feColorMatrix type="matrix" values="0 0 0 0 0 0 0 0 0 0 0 0 0 0 0 0 0 0 0.08 0"/>
<feBlend mode="normal" in2="BackgroundImageFix" result="effect1_dropShadow_2_44"/>
<feBlend mode="normal" in="SourceGraphic" in2="effect1_dropShadow_2_44" result="shape"/>
<feColorMatrix in="SourceAlpha" type="matrix" values="0 0 0 0 0 0 0 0 0 0 0 0 0 0 0 0 0 0 127 0" result="hardAlpha"/>
<feOffset dy="3.59989"/>
<feGaussianBlur stdDeviation="1.79994"/>
<feComposite in2="hardAlpha" operator="arithmetic" k2="-1" k3="1"/>
<feColorMatrix type="matrix" values="0 0 0 0 0 0 0 0 0 0 0 0 0 0 0 0 0 0 0.1 0"/>
<feBlend mode="normal" in2="shape" result="effect2_innerShadow_2_44"/>
</filter>
<linearGradient id="paint0_linear_2_44" x1="25.7725" y1="6.10352e-05" x2="25.7725" y2="43.5429" gradientUnits="userSpaceOnUse">
<stop stop-color="#805EB5"/>
<stop offset="1" stop-color="#B391EB"/>
</linearGradient>
</defs>
</svg>
